<?xml version="1.0" encoding="iso-8859-1"?>
<!-- Generator: Adobe Illustrator 16.0.0, SVG Export Plug-In . SVG Version: 6.00 Build 0)  -->
<!DOCTYPE svg PUBLIC "-//W3C//DTD SVG 1.1//EN" "http://www.w3.org/Graphics/SVG/1.1/DTD/svg11.dtd">
<svg version="1.1" xmlns="http://www.w3.org/2000/svg" xmlns:xlink="http://www.w3.org/1999/xlink" x="0px" y="0px"
	 width="17.847px" height="27.274px" viewBox="0 0 17.847 27.274" style="enable-background:new 0 0 17.847 27.274;"
	 xml:space="preserve">
<g id="bat">
	<path style="fill:#121212;" d="M17.848,0l-4.631,5.613c-1.271-0.724-2.791-1.084-4.35-1.084c-1.57,0-3.045,0.365-4.322,1.1L0.014,0
		L0.01,14.099c-0.023,0.368,0,0.743,0,1.134c0,5.395,2.201,10.023,5.349,12.016c-1.773-2.286-3.309-4.768-2.597-7.178
		c4.075-0.164,4.507-0.186,4.507-0.186l1.439,1.173l1.77-1.173c2.965,0.021,4.363,0.083,4.363,0.083
		c0.184,1.51-0.078,4.821-2.612,7.307c3.169-1.979,5.413-6.625,5.413-12.042c0-0.379-0.016-0.746-0.016-1.104L17.848,0z
		 M6.871,15.898c-0.425,0.17-1.378,0.732-1.82,0.867c-0.443,0.137-1.055,0.223-1.294,0c-0.238-0.221-1.005-0.953-1.157-1.123
		s-0.256-1.532,0.646-1.463c0.92,0.069,3.404,1.089,3.558,1.14C6.957,15.371,7.297,15.729,6.871,15.898z M15.005,15.643
		c-0.153,0.17-0.919,0.902-1.157,1.123c-0.238,0.223-0.851,0.137-1.293,0c-0.443-0.135-1.396-0.697-1.822-0.867
		s-0.085-0.527,0.068-0.579s2.639-1.071,3.557-1.14C15.261,14.11,15.158,15.473,15.005,15.643z"/>
</g>
<g id="Layer_1">
</g>
</svg>
