<?xml version="1.0" encoding="iso-8859-1"?>
<!-- Generator: Adobe Illustrator 16.0.0, SVG Export Plug-In . SVG Version: 6.00 Build 0)  -->
<!DOCTYPE svg PUBLIC "-//W3C//DTD SVG 1.1//EN" "http://www.w3.org/Graphics/SVG/1.1/DTD/svg11.dtd">
<svg version="1.1" xmlns="http://www.w3.org/2000/svg" xmlns:xlink="http://www.w3.org/1999/xlink" x="0px" y="0px"
	 width="89.293px" height="89.271px" viewBox="0 0 89.293 89.271" style="enable-background:new 0 0 89.293 89.271;"
	 xml:space="preserve">
<g id="corporate">
	<circle style="fill:#121212;" cx="44.711" cy="44.487" r="11.707"/>
	<path style="fill:#121212;" d="M4.436,65.232c1.119,2.172,2.392,4.209,3.791,6.115l10.775-0.975
		c1.697,1.693,3.557,3.217,5.552,4.553l0.8,10.516c3.975,1.877,8.204,3.166,12.552,3.83l6.799-8.15c0.113,0,0.22,0.02,0.333,0.02
		c2.164,0,4.271-0.225,6.333-0.582l7.941,6.82c2.078-0.713,4.131-1.578,6.141-2.613c2.013-1.037,3.91-2.207,5.697-3.488
		l-0.916-10.139c1.757-1.648,3.35-3.457,4.756-5.422l10.133-0.768c1.98-3.924,3.388-8.117,4.17-12.443l-7.477-6.234
		c0.036-0.671,0.1-1.334,0.1-2.013c0-2.18-0.225-4.308-0.586-6.385l6.43-7.493c-0.739-2.246-1.657-4.464-2.777-6.636
		c-0.846-1.644-1.788-3.205-2.799-4.698l-9.501,0.857c-2.127-2.409-4.54-4.558-7.225-6.348l-0.737-9.71
		C61.074,2.052,57.201,0.764,53.209,0l-6.235,7.475c-0.646-0.034-1.283-0.099-1.937-0.099c-2.776,0-5.471,0.333-8.072,0.914
		l-7.511-6.451c-1.852,0.666-3.688,1.448-5.487,2.372c-1.8,0.93-3.501,1.97-5.12,3.092l0.915,10.146
		c-2.309,2.178-4.326,4.646-6.014,7.354L3.553,25.578C1.86,29.27,0.657,33.174,0,37.185L8.17,44c0,0.088-0.014,0.171-0.014,0.257
		c0,2.759,0.327,5.44,0.903,8.024l-6.822,7.943C2.866,61.914,3.589,63.59,4.436,65.232z M33.911,23.522
		c11.578-5.966,25.803-1.416,31.766,10.167c5.966,11.578,1.413,25.803-10.167,31.766c-11.577,5.965-25.803,1.414-31.766-10.166
		C17.778,43.709,22.331,29.485,33.911,23.522z"/>
</g>
<g id="Layer_1">
</g>
</svg>
