<?xml version="1.0" encoding="iso-8859-1"?>
<!-- Generator: Adobe Illustrator 16.0.0, SVG Export Plug-In . SVG Version: 6.00 Build 0)  -->
<!DOCTYPE svg PUBLIC "-//W3C//DTD SVG 1.1//EN" "http://www.w3.org/Graphics/SVG/1.1/DTD/svg11.dtd">
<svg version="1.1" xmlns="http://www.w3.org/2000/svg" xmlns:xlink="http://www.w3.org/1999/xlink" x="0px" y="0px"
	 width="23.115px" height="22.545px" viewBox="0 0 23.115 22.545" style="enable-background:new 0 0 23.115 22.545;"
	 xml:space="preserve">
<g id="ct-gi">
	<path style="fill-rule:evenodd;clip-rule:evenodd;fill:#222222;" d="M11.557,0C5.174,0,0,5.175,0,11.559
		c0,5.105,3.311,9.438,7.904,10.966c0.578,0.106,0.788-0.25,0.788-0.557c0-0.274-0.009-1.002-0.015-1.966
		c-3.215,0.698-3.895-1.55-3.895-1.55c-0.525-1.335-1.283-1.69-1.283-1.69c-1.049-0.718,0.08-0.702,0.08-0.702
		c1.16,0.082,1.771,1.191,1.771,1.191c1.03,1.766,2.705,1.256,3.363,0.959c0.104-0.746,0.403-1.256,0.734-1.545
		c-2.566-0.291-5.265-1.283-5.265-5.711c0-1.262,0.45-2.293,1.188-3.102C5.254,7.56,4.857,6.385,5.486,4.793
		c0,0,0.97-0.311,3.178,1.185c0.923-0.256,1.91-0.385,2.894-0.389c0.982,0.004,1.97,0.133,2.894,0.389
		c2.207-1.496,3.176-1.185,3.176-1.185c0.631,1.591,0.233,2.767,0.115,3.059c0.74,0.808,1.188,1.84,1.188,3.102
		c0,4.44-2.702,5.417-5.277,5.703c0.415,0.356,0.784,1.062,0.784,2.141c0,1.545-0.014,2.792-0.014,3.171
		c0,0.309,0.208,0.669,0.795,0.556c4.589-1.531,7.897-5.86,7.897-10.965C23.115,5.175,17.94,0,11.557,0z"/>
</g>
<g id="Layer_1">
</g>
</svg>
