<?xml version="1.0" encoding="iso-8859-1"?>
<!-- Generator: Adobe Illustrator 16.0.0, SVG Export Plug-In . SVG Version: 6.00 Build 0)  -->
<!DOCTYPE svg PUBLIC "-//W3C//DTD SVG 1.1//EN" "http://www.w3.org/Graphics/SVG/1.1/DTD/svg11.dtd">
<svg version="1.1" id="Layer_1" xmlns="http://www.w3.org/2000/svg" xmlns:xlink="http://www.w3.org/1999/xlink" x="0px" y="0px"
	 width="21.779px" height="21.781px" viewBox="0 0 21.779 21.781" style="enable-background:new 0 0 21.779 21.781;"
	 xml:space="preserve">
<g id="ct-in">
	<g>
		<g>
			<path style="fill:#222222;" d="M20.169,0H1.607C0.719,0,0,0.702,0,1.571v18.639c0,0.867,0.72,1.57,1.606,1.57h18.562
				c0.888,0,1.61-0.703,1.61-1.57V1.571C21.78,0.702,21.057,0,20.169,0z M6.462,18.559H3.228V8.165h3.234V18.559z M4.845,6.745
				c-1.037,0-1.874-0.84-1.874-1.873c0-1.035,0.837-1.873,1.874-1.873c1.033,0,1.873,0.838,1.873,1.873
				C6.718,5.905,5.878,6.745,4.845,6.745z M18.561,18.559h-3.229v-5.055c0-1.205-0.021-2.756-1.68-2.756
				c-1.682,0-1.938,1.312-1.938,2.668v5.143H8.487V8.165h3.098v1.42h0.045c0.43-0.816,1.484-1.678,3.056-1.678
				c3.271,0,3.876,2.152,3.876,4.951V18.559L18.561,18.559z"/>
		</g>
	</g>
</g>
<g id="Layer_1_1_">
</g>
</svg>
