<?xml version="1.0" encoding="iso-8859-1"?>
<!-- Generator: Adobe Illustrator 16.0.0, SVG Export Plug-In . SVG Version: 6.00 Build 0)  -->
<!DOCTYPE svg PUBLIC "-//W3C//DTD SVG 1.1//EN" "http://www.w3.org/Graphics/SVG/1.1/DTD/svg11.dtd">
<svg version="1.1" xmlns="http://www.w3.org/2000/svg" xmlns:xlink="http://www.w3.org/1999/xlink" x="0px" y="0px"
	 width="95.281px" height="91.063px" viewBox="0 0 95.281 91.063" style="enable-background:new 0 0 95.281 91.063;"
	 xml:space="preserve">
<g id="experiments">
	<g>
		<g>
			<path style="fill:#121212;" d="M56.867,18.011c1.317,0.376,2.084,1.751,1.71,3.071l-2.383,8.363
				c-0.376,1.318-1.752,2.087-3.069,1.71c-1.32-0.377-2.084-1.751-1.708-3.071l2.382-8.364c0.312-1.089,1.307-1.803,2.388-1.803
				C56.411,17.917,56.641,17.951,56.867,18.011z"/>
			<path style="fill:#121212;" d="M42.117,19.327l2.99,8.162c0.473,1.289-0.19,2.717-1.48,3.187
				c-1.282,0.473-2.713-0.189-3.187-1.477l-2.985-8.166c-0.473-1.288,0.189-2.715,1.479-3.186c0.279-0.103,0.569-0.151,0.854-0.151
				C40.797,17.695,41.75,18.319,42.117,19.327z"/>
			<path style="fill:#121212;" d="M27.77,27.575l7.219,4.85c1.139,0.766,1.441,2.31,0.677,3.446
				c-0.765,1.141-2.309,1.444-3.448,0.677L24.998,31.7c-1.139-0.766-1.439-2.308-0.677-3.447c0.479-0.716,1.266-1.099,2.064-1.099
				C26.861,27.154,27.343,27.292,27.77,27.575z"/>
			<path style="fill:#121212;" d="M32.273,44.76c0.048,1.37-1.022,2.521-2.394,2.572l-8.688,0.318
				c-1.345,0.051-2.522-1.021-2.574-2.392c-0.047-1.371,1.022-2.521,2.394-2.573l8.688-0.318c0.031-0.001,0.062-0.001,0.093-0.001
				C31.122,42.366,32.223,43.418,32.273,44.76z"/>
			<path style="fill:#121212;" d="M34.751,53.941c0.847,1.078,0.659,2.641-0.421,3.486l-6.843,5.365
				c-1.078,0.846-2.641,0.654-3.486-0.424s-0.657-2.641,0.423-3.486l6.84-5.365c0.456-0.357,0.994-0.529,1.531-0.529
				C33.533,52.988,34.263,53.314,34.751,53.941z"/>
			<path style="fill:#121212;" d="M42.155,59.908c1.318,0.375,2.083,1.75,1.709,3.07l-2.383,8.361
				c-0.377,1.32-1.749,2.088-3.07,1.709c-1.319-0.375-2.084-1.75-1.707-3.068l2.383-8.363c0.311-1.092,1.306-1.805,2.388-1.805
				C41.7,59.812,41.93,59.844,42.155,59.908z"/>
			<path style="fill:#121212;" d="M54.838,61.869l2.988,8.164c0.473,1.289-0.189,2.715-1.479,3.186s-2.716-0.189-3.188-1.479
				l-2.984-8.164c-0.473-1.289,0.189-2.717,1.479-3.186c0.279-0.104,0.569-0.152,0.851-0.152
				C53.521,60.238,54.473,60.863,54.838,61.869z"/>
			<path style="fill:#121212;" d="M63.064,54.518l7.219,4.852c1.141,0.766,1.439,2.309,0.677,3.447
				c-0.765,1.139-2.309,1.441-3.448,0.676l-7.219-4.852c-1.138-0.766-1.438-2.309-0.674-3.447c0.479-0.713,1.266-1.1,2.064-1.1
				C62.161,54.094,62.641,54.232,63.064,54.518z"/>
			<path style="fill:#121212;" d="M76.662,45.808c0.051,1.372-1.02,2.524-2.39,2.573l-8.691,0.318
				c-1.338,0.053-2.52-1.02-2.573-2.391c-0.048-1.372,1.022-2.524,2.394-2.575l8.689-0.316c0.03-0.001,0.062-0.001,0.092-0.001
				C75.513,43.416,76.615,44.468,76.662,45.808z"/>
			<g>
				<g>
					<path style="fill:#121212;" d="M58.909,8.364c-1.081,0-2.077,0.711-2.389,1.807l-0.112,0.395
						c-0.375,1.32,0.391,2.693,1.707,3.068c1.32,0.376,2.693-0.389,3.07-1.708l0.114-0.398c0.374-1.319-0.39-2.694-1.712-3.068
						C59.36,8.394,59.133,8.361,58.909,8.364z"/>
					<path style="fill:#121212;" d="M63.679,3.166c0.375-1.319-0.39-2.694-1.709-3.069C61.741,0.032,61.515,0,61.289,0
						c-1.084,0-2.08,0.714-2.39,1.805l-0.113,0.399c-0.375,1.319,0.389,2.693,1.709,3.068c1.319,0.375,2.691-0.39,3.069-1.709
						L63.679,3.166z"/>
					<path style="fill:#121212;" d="M38.842,10.387l-0.141-0.39c-0.368-1.007-1.319-1.631-2.333-1.631
						c-0.282,0-0.569,0.048-0.851,0.15c-1.289,0.471-1.951,1.897-1.48,3.186l0.143,0.389c0.47,1.289,1.896,1.95,3.184,1.48
						C38.652,13.1,39.316,11.674,38.842,10.387z"/>
					<path style="fill:#121212;" d="M35.856,2.219l-0.144-0.39c-0.37-1.004-1.319-1.627-2.332-1.627
						c-0.285,0-0.574,0.051-0.855,0.154c-1.288,0.472-1.948,1.9-1.475,3.188l0.142,0.39c0.473,1.285,1.904,1.944,3.189,1.471
						C35.67,4.933,36.329,3.505,35.856,2.219z"/>
					<path style="fill:#121212;" d="M20.544,25.717c0.764-1.139,0.46-2.682-0.676-3.447l-0.346-0.231
						c-0.424-0.287-0.906-0.423-1.382-0.423c-0.801,0-1.584,0.384-2.066,1.098c-0.764,1.136-0.46,2.681,0.678,3.446l0.342,0.231
						C18.233,27.158,19.775,26.853,20.544,25.717z"/>
					<path style="fill:#121212;" d="M13.325,20.866c0.764-1.138,0.459-2.681-0.679-3.446l-0.344-0.23
						c-0.426-0.286-0.906-0.421-1.382-0.421c-0.8,0-1.587,0.386-2.065,1.099c-0.764,1.141-0.459,2.684,0.68,3.447l0.345,0.231
						C11.021,22.307,12.564,22.005,13.325,20.866z"/>
					<path style="fill:#121212;" d="M5.381,45.749c-0.05-1.34-1.151-2.394-2.48-2.394c-0.031,0-0.062,0-0.093,0.002l-0.414,0.016
						c-1.371,0.051-2.442,1.203-2.392,2.573c0.053,1.371,1.219,2.464,2.576,2.39l0.41-0.016C4.361,48.27,5.43,47.119,5.381,45.749z"
						/>
					<path style="fill:#121212;" d="M14.066,45.426c-0.048-1.34-1.15-2.393-2.48-2.393c-0.031,0-0.061,0-0.092,0.002l-0.413,0.015
						c-1.373,0.051-2.444,1.203-2.393,2.575c0.051,1.371,1.186,2.465,2.574,2.391L11.677,48
						C13.048,47.949,14.119,46.796,14.066,45.426z"/>
					<path style="fill:#121212;" d="M13.576,70.547c-0.489-0.627-1.218-0.951-1.955-0.951c-0.537,0-1.075,0.172-1.529,0.527
						l-0.327,0.256c-1.078,0.846-1.269,2.406-0.425,3.486c0.848,1.08,2.409,1.27,3.486,0.424l0.328-0.256
						C14.233,73.188,14.423,71.627,13.576,70.547z"/>
					<path style="fill:#121212;" d="M16.181,68.502c0.847,1.08,2.407,1.271,3.486,0.424l0.326-0.254
						c1.079-0.848,1.269-2.408,0.424-3.488c-0.49-0.625-1.22-0.951-1.957-0.951c-0.537,0-1.074,0.17-1.528,0.527l-0.326,0.256
						C15.526,65.859,15.335,67.422,16.181,68.502z"/>
					<path style="fill:#121212;" d="M38.76,80.896l0.113-0.396c0.377-1.32-0.391-2.695-1.71-3.07
						c-0.227-0.062-0.456-0.094-0.68-0.094c-1.083,0-2.077,0.713-2.388,1.805l-0.115,0.398c-0.375,1.318,0.39,2.693,1.709,3.068
						C37.014,82.984,38.385,82.217,38.76,80.896z"/>
					<path style="fill:#121212;" d="M31.603,87.898c-0.376,1.318,0.388,2.693,1.709,3.068c1.317,0.379,2.693-0.389,3.068-1.709
						l0.114-0.396c0.373-1.32-0.391-2.693-1.711-3.068c-0.227-0.064-0.456-0.096-0.681-0.096c-1.082,0-2.077,0.711-2.388,1.803
						L31.603,87.898z"/>
					<path style="fill:#121212;" d="M56.435,80.68l0.142,0.389c0.472,1.289,1.896,1.949,3.184,1.48
						c1.29-0.471,1.952-1.896,1.479-3.186l-0.14-0.389c-0.367-1.006-1.32-1.631-2.332-1.631c-0.286,0-0.573,0.049-0.854,0.15
						C56.624,77.965,55.961,79.391,56.435,80.68z"/>
					<path style="fill:#121212;" d="M64.228,87.525l-0.142-0.389c-0.371-1.004-1.32-1.629-2.329-1.629
						c-0.286,0-0.576,0.049-0.859,0.154c-1.286,0.473-1.946,1.9-1.473,3.188l0.141,0.389c0.475,1.287,1.905,1.947,3.188,1.473
						C64.044,90.238,64.701,88.811,64.228,87.525z"/>
					<path style="fill:#121212;" d="M86.421,73.207c0.769-1.139,0.464-2.684-0.675-3.449l-0.344-0.23
						c-0.428-0.287-0.905-0.424-1.384-0.424c-0.799,0-1.584,0.385-2.064,1.098c-0.765,1.137-0.463,2.682,0.676,3.447l0.342,0.23
						C84.109,74.645,85.654,74.344,86.421,73.207z"/>
					<path style="fill:#121212;" d="M79.208,68.355c0.765-1.139,0.461-2.682-0.679-3.447l-0.342-0.23
						c-0.426-0.287-0.908-0.424-1.384-0.424c-0.799,0-1.583,0.385-2.065,1.098c-0.764,1.139-0.464,2.682,0.677,3.447l0.344,0.232
						C76.894,69.797,78.438,69.494,79.208,68.355z"/>
					<path style="fill:#121212;" d="M95.279,45.122c-0.048-1.339-1.151-2.392-2.481-2.392c-0.03,0-0.062,0-0.093,0.003l-0.415,0.015
						c-1.37,0.049-2.441,1.202-2.391,2.575c0.053,1.371,1.2,2.464,2.576,2.39l0.412-0.016C94.261,47.646,95.33,46.496,95.279,45.122
						z"/>
					<path style="fill:#121212;" d="M86.592,45.443c-0.048-1.339-1.149-2.391-2.482-2.391c-0.029,0-0.06,0-0.091,0.001l-0.414,0.017
						c-1.373,0.049-2.44,1.201-2.393,2.572c0.053,1.372,1.194,2.465,2.575,2.391l0.413-0.016
						C85.572,47.967,86.641,46.815,86.592,45.443z"/>
					<path style="fill:#121212;" d="M85.942,17.198c-0.488-0.623-1.219-0.949-1.955-0.949c-0.538,0-1.078,0.174-1.531,0.531
						l-0.323,0.254c-1.082,0.848-1.271,2.408-0.423,3.487c0.847,1.079,2.409,1.268,3.486,0.421l0.325-0.256
						C86.604,19.84,86.788,18.277,85.942,17.198z"/>
					<path style="fill:#121212;" d="M79.103,22.564c-0.488-0.624-1.217-0.949-1.956-0.949c-0.539,0-1.076,0.173-1.53,0.527
						l-0.325,0.256c-1.081,0.846-1.271,2.406-0.424,3.487c0.847,1.08,2.406,1.27,3.486,0.423l0.325-0.256
						C79.76,25.208,79.948,23.645,79.103,22.564z"/>
				</g>
				<path style="fill:#121212;" d="M71.282,28.699c0.847,1.078,0.66,2.64-0.421,3.486l-6.839,5.366
					c-1.082,0.846-2.642,0.657-3.488-0.422c-0.847-1.081-0.655-2.642,0.422-3.49l6.841-5.363c0.453-0.359,0.993-0.53,1.529-0.53
					C70.064,27.746,70.795,28.071,71.282,28.699z"/>
			</g>
		</g>
		<circle style="fill:#121212;" cx="47.59" cy="45.532" r="10.289"/>
	</g>
</g>
<g id="Layer_1">
</g>
</svg>
